<?xml version="1.0" encoding="UTF-8"?>
<!DOCTYPE svg PUBLIC "-//W3C//DTD SVG 1.1//EN" "http://www.w3.org/Graphics/SVG/1.1/DTD/svg11.dtd">
<!-- Creator: CorelDRAW -->
<svg xmlns="http://www.w3.org/2000/svg" xml:space="preserve" width="187px" height="187px" version="1.1" style="shape-rendering:geometricPrecision; text-rendering:geometricPrecision; image-rendering:optimizeQuality; fill-rule:evenodd; clip-rule:evenodd"
viewBox="0 0 22.55 22.55"
 xmlns:xlink="http://www.w3.org/1999/xlink"
 xmlns:xodm="http://www.corel.com/coreldraw/odm/2003">
 <defs>
  <style type="text/css">
   <![CDATA[
    .fil0 {fill:#FEFEFE}
    .fil1 {fill:#FEFEFE;fill-rule:nonzero}
   ]]>
  </style>
 </defs>
 <g id="Livello_x0020_1">
  <metadata id="CorelCorpID_0Corel-Layer"/>
  <path class="fil0" d="M11.27 0c6.23,0 11.28,5.05 11.28,11.27 0,6.23 -5.05,11.28 -11.28,11.28 -6.22,0 -11.27,-5.05 -11.27,-11.28 0,-6.22 5.05,-11.27 11.27,-11.27zm0 2.27c4.98,0 9.01,4.03 9.01,9 0,4.98 -4.03,9.01 -9.01,9.01 -4.97,0 -9,-4.03 -9,-9.01 0,-4.97 4.03,-9 9,-9z"/>
  <path class="fil1" d="M14.91 10.18c0,1.05 -0.34,2.01 -0.91,2.79l2.88 2.88c0.28,0.29 0.28,0.75 0,1.03 -0.28,0.29 -0.75,0.29 -1.03,0l-2.88 -2.88c-0.78,0.57 -1.74,0.91 -2.79,0.91 -2.61,0 -4.72,-2.12 -4.72,-4.73 0,-2.61 2.11,-4.73 4.72,-4.73 2.62,0 4.73,2.12 4.73,4.73zm-4.73 3.28c1.81,0 3.28,-1.47 3.28,-3.28 0,-1.8 -1.47,-3.27 -3.28,-3.27 -1.8,0 -3.27,1.47 -3.27,3.27 0,1.81 1.47,3.28 3.27,3.28z"/>
 </g>
</svg>
